<svg width="23" height="23" viewBox="0 0 23 23" fill="none" xmlns="http://www.w3.org/2000/svg">
<path fill-rule="evenodd" clip-rule="evenodd" d="M9.91667 0.875C4.92309 0.875 0.875 4.92309 0.875 9.91667C0.875 14.9102 4.92309 18.9583 9.91667 18.9583C11.9476 18.9583 13.8221 18.2887 15.3316 17.1582L20.6284 22.4551C21.1328 22.9595 21.9507 22.9595 22.4551 22.4551C22.9595 21.9507 22.9595 21.1328 22.4551 20.6284L17.1582 15.3316C18.2887 13.8221 18.9583 11.9476 18.9583 9.91667C18.9583 4.92309 14.9102 0.875 9.91667 0.875ZM3.45833 9.91667C3.45833 6.34983 6.34983 3.45833 9.91667 3.45833C13.4835 3.45833 16.375 6.34983 16.375 9.91667C16.375 13.4835 13.4835 16.375 9.91667 16.375C6.34983 16.375 3.45833 13.4835 3.45833 9.91667Z" fill="#CC2D4A"/>
</svg>
